<?xml version="1.0" standalone="no"?>
<!DOCTYPE svg PUBLIC "-//W3C//DTD SVG 20010904//EN"
 "http://www.w3.org/TR/2001/REC-SVG-20010904/DTD/svg10.dtd">
<svg version="1.0" xmlns="http://www.w3.org/2000/svg"
 width="1082.000000pt" height="1082.000000pt" viewBox="0 0 1082.000000 1082.000000"
 preserveAspectRatio="xMidYMid meet">
<metadata>
Created by potrace 1.11, written by Peter Selinger 2001-2013
</metadata>
<g transform="translate(0.000000,1082.000000) scale(0.100000,-0.100000)"
fill="#000000" stroke="none">
<path d="M5258 10804 c-88 -16 -216 -60 -291 -102 -29 -15 -347 -199 -707
-407 -360 -208 -695 -402 -745 -430 -49 -28 -369 -213 -710 -410 -341 -197
-676 -390 -745 -430 -1130 -652 -1093 -629 -1201 -742 -105 -110 -160 -196
-209 -332 -62 -168 -58 -40 -70 -2542 -13 -2537 -16 -2380 50 -2560 68 -187
198 -355 360 -464 105 -71 3964 -2272 4030 -2299 128 -52 225 -71 370 -70 158
0 265 23 395 83 44 21 301 165 570 321 270 156 546 316 615 355 69 40 346 199
615 355 270 156 546 315 615 355 69 39 184 106 255 147 284 165 1047 605 1168
674 71 41 152 89 180 108 190 127 331 328 395 564 l26 97 3 535 c13 1950 18
4079 11 4146 -30 282 -189 543 -426 698 -77 51 -3866 2218 -3957 2263 -182 91
-400 123 -597 87z m83 -930 c9 -11 2 -9 -18 6 -18 13 -33 25 -33 27 0 8 38
-17 51 -33z m-351 21 c0 -2 -10 -9 -22 -15 -22 -11 -22 -10 -4 4 21 17 26 19
26 11z m-50 -30 c0 -2 -10 -9 -22 -15 -22 -11 -22 -10 -4 4 21 17 26 19 26 11z
m-50 -30 c0 -2 -10 -9 -22 -15 -22 -11 -22 -10 -4 4 21 17 26 19 26 11z m559
-140 c0 -11 -7 0 -15 25 -17 56 -17 64 1 25 8 -16 14 -39 14 -50z m-769 20 c0
-2 -10 -9 -22 -15 -22 -11 -22 -10 -4 4 21 17 26 19 26 11z m-50 -30 c0 -2
-10 -9 -22 -15 -22 -11 -22 -10 -4 4 21 17 26 19 26 11z m821 -106 l-11 -34 5
34 c3 18 6 48 7 65 l1 31 4 -31 c2 -18 -1 -47 -6 -65z m-1051 -24 c0 -2 -10
-9 -22 -15 -22 -11 -22 -10 -4 4 21 17 26 19 26 11z m932 -167 c-6 -7 -25 -22
-44 -32 -39 -23 -32 -13 14 20 38 26 45 29 30 12z m-1242 -13 c0 -2 -10 -9
-22 -15 -22 -11 -22 -10 -4 4 21 17 26 19 26 11z m-50 -30 c0 -2 -10 -9 -22
-15 -22 -11 -22 -10 -4 4 21 17 26 19 26 11z m-50 -30 c0 -2 -10 -9 -22 -15
-22 -11 -22 -10 -4 4 21 17 26 19 26 11z m1065 -91 c-24 -18 -83 -50 -73 -39
10 10 81 54 88 54 3 0 -4 -7 -15 -15z m-1262 -22 c-27 -20 -131 -79 -121 -67
9 9 131 84 138 84 3 0 -5 -7 -17 -17z m1177 -27 c0 -2 -10 -9 -22 -15 -22 -11
-22 -10 -4 4 21 17 26 19 26 11z m-160 -90 c0 -2 -10 -9 -22 -15 -22 -11 -22
-10 -4 4 21 17 26 19 26 11z m-50 -30 c0 -2 -10 -9 -22 -15 -22 -11 -22 -10
-4 4 21 17 26 19 26 11z m-1260 -20 c0 -2 -10 -9 -22 -15 -22 -11 -22 -10 -4
4 21 17 26 19 26 11z m1210 -10 c0 -2 -10 -9 -22 -15 -22 -11 -22 -10 -4 4 21
17 26 19 26 11z m-1260 -20 c0 -2 -10 -9 -22 -15 -22 -11 -22 -10 -4 4 21 17
26 19 26 11z m1210 -10 c0 -2 -10 -9 -22 -15 -22 -11 -22 -10 -4 4 21 17 26
19 26 11z m-1260 -20 c0 -2 -10 -9 -22 -15 -22 -11 -22 -10 -4 4 21 17 26 19
26 11z m1100 -69 c0 -2 -21 -17 -47 -32 -27 -15 -58 -34 -70 -42 -13 -8 -23
-12 -23 -9 0 5 130 87 138 87 1 0 2 -2 2 -4z m-1299 -44 c-38 -27 -107 -66
-96 -55 12 13 108 73 115 72 3 0 -6 -8 -19 -17z m969 -147 c0 -2 -10 -9 -22
-15 -22 -11 -22 -10 -4 4 21 17 26 19 26 11z m-1275 -31 c-24 -18 -83 -50 -73
-39 10 10 81 54 88 54 3 0 -4 -7 -15 -15z m1225 1 c0 -2 -10 -9 -22 -15 -22
-11 -22 -10 -4 4 21 17 26 19 26 11z m-50 -30 c0 -2 -10 -9 -22 -15 -22 -11
-22 -10 -4 4 21 17 26 19 26 11z m-160 -90 c0 -2 -10 -9 -22 -15 -22 -11 -22
-10 -4 4 21 17 26 19 26 11z m-50 -30 c0 -2 -10 -9 -22 -15 -22 -11 -22 -10
-4 4 21 17 26 19 26 11z m-1260 -20 c0 -2 -10 -9 -22 -15 -22 -11 -22 -10 -4
4 21 17 26 19 26 11z m1210 -10 c0 -2 -10 -9 -22 -15 -22 -11 -22 -10 -4 4 21
17 26 19 26 11z m-1260 -20 c0 -2 -10 -9 -22 -15 -22 -11 -22 -10 -4 4 21 17
26 19 26 11z m-50 -30 c0 -2 -10 -9 -22 -15 -22 -11 -22 -10 -4 4 21 17 26 19
26 11z m1061 -93 c-38 -27 -107 -66 -96 -55 12 13 108 73 115 72 3 0 -6 -8
-19 -17z m-1256 -18 c-26 -20 -55 -36 -55 -30 0 5 63 46 70 46 3 -1 -4 -8 -15
-16z m-65 -39 c0 -2 -10 -9 -22 -15 -22 -11 -22 -10 -4 4 21 17 26 19 26 11z
m1080 -80 c0 -2 -10 -9 -22 -15 -22 -11 -22 -10 -4 4 21 17 26 19 26 11z
m-1260 -20 c0 -2 -10 -9 -22 -15 -22 -11 -22 -10 -4 4 21 17 26 19 26 11z
m1210 -10 c0 -2 -10 -9 -22 -15 -22 -11 -22 -10 -4 4 21 17 26 19 26 11z
m-1260 -20 c0 -2 -10 -9 -22 -15 -22 -11 -22 -10 -4 4 21 17 26 19 26 11z
m1210 -10 c0 -2 -10 -9 -22 -15 -22 -11 -22 -10 -4 4 21 17 26 19 26 11z
m-1260 -20 c0 -2 -10 -9 -22 -15 -22 -11 -22 -10 -4 4 21 17 26 19 26 11z
m1050 -100 c0 -2 -10 -9 -22 -15 -22 -11 -22 -10 -4 4 21 17 26 19 26 11z
m-1260 -20 c0 -2 -10 -9 -22 -15 -22 -11 -22 -10 -4 4 21 17 26 19 26 11z
m1210 -10 c0 -2 -10 -9 -22 -15 -22 -11 -22 -10 -4 4 21 17 26 19 26 11z
m-1260 -19 c0 -2 -12 -11 -27 -20 l-28 -17 24 20 c23 21 31 25 31 17z m1210
-11 c0 -2 -10 -9 -22 -15 -22 -11 -22 -10 -4 4 21 17 26 19 26 11z m-1346
-137 c-9 -17 -20 -52 -24 -77 -7 -42 -8 -43 -9 -11 0 33 31 120 44 120 3 0 -2
-14 -11 -32z m1097 -6 c-38 -27 -107 -66 -96 -55 12 13 108 73 115 72 3 0 -6
-8 -19 -17z m-1118 -182 c4 -30 3 -38 -3 -25 -8 19 -14 83 -6 74 2 -2 6 -24 9
-49z m877 45 c0 -2 -10 -9 -22 -15 -22 -11 -22 -10 -4 4 21 17 26 19 26 11z
m-50 -30 c0 -2 -10 -9 -22 -15 -22 -11 -22 -10 -4 4 21 17 26 19 26 11z m-50
-30 c0 -2 -10 -9 -22 -15 -22 -11 -22 -10 -4 4 21 17 26 19 26 11z m7028 -34
c23 -12 42 -24 42 -26 0 -3 -19 5 -42 17 -34 17 -60 22 -123 23 -44 0 -91 -3
-105 -7 -20 -6 -19 -5 5 7 44 22 167 15 223 -14z m-7784 -17 c3 -8 2 -12 -4
-9 -6 3 -10 10 -10 16 0 14 7 11 14 -7z m7917 -96 c15 -28 5 -21 -21 15 -15
20 -17 27 -6 18 9 -8 22 -23 27 -33z m-7371 27 c0 -2 -10 -9 -22 -15 -22 -11
-22 -10 -4 4 21 17 26 19 26 11z m6880 1 c0 -2 -8 -10 -17 -17 -16 -13 -17
-12 -4 4 13 16 21 21 21 13z m-6930 -30 c0 -6 -106 -66 -116 -66 -5 0 18 16
51 35 64 37 65 37 65 31z m-365 -44 c11 -6 15 -12 8 -12 -7 0 -22 10 -35 23
-13 12 -17 17 -8 11 8 -6 24 -16 35 -22z m7253 13 c-6 -14 -13 -23 -15 -21 -5
5 15 46 22 46 3 0 -1 -11 -7 -25z m-31 -102 c-3 -10 -5 -4 -5 12 0 17 2 24 5
18 2 -7 2 -21 0 -30z m-4197 -312 c92 -27 181 -71 239 -119 88 -72 172 -212
226 -377 28 -85 65 -282 65 -344 l0 -37 -282 -42 c-155 -22 -285 -39 -288 -37
-4 2 -10 51 -13 107 -8 120 -37 244 -72 304 -33 56 -92 85 -174 85 -96 1 -152
-36 -203 -135 -30 -57 -36 -191 -14 -284 35 -141 94 -211 429 -505 128 -112
268 -242 313 -288 196 -206 307 -403 348 -619 20 -104 21 -321 1 -412 -66
-311 -311 -543 -640 -605 -59 -11 -121 -14 -240 -10 -192 6 -287 27 -424 93
-78 38 -109 61 -177 128 -72 72 -89 97 -138 197 -74 154 -126 371 -126 534 l0
60 258 44 c141 23 268 45 282 48 l26 5 11 -134 c30 -329 123 -469 313 -469
162 -1 228 93 217 305 -6 131 -32 209 -101 312 -72 104 -157 191 -391 393
-318 276 -381 340 -476 484 -103 156 -147 343 -136 577 15 318 141 535 387
664 154 81 285 106 525 102 149 -3 193 -7 255 -25z m2115 -35 c118 -22 270
-74 342 -117 32 -19 91 -66 130 -105 58 -57 81 -90 118 -165 25 -52 56 -137
69 -189 44 -173 48 -270 44 -1095 -4 -848 -5 -854 -69 -1050 -55 -165 -143
-282 -281 -372 -82 -53 -162 -84 -289 -112 -158 -34 -292 -41 -771 -41 l-458
0 0 1636 0 1635 538 -4 c458 -3 550 -6 627 -21z m2082 -3568 c-3 -7 -5 -2 -5
12 0 14 2 19 5 13 2 -7 2 -19 0 -25z m56 -117 c9 -12 9 -13 -1 -7 -15 9 -52
80 -52 98 0 7 10 -7 21 -31 11 -25 25 -52 32 -60z m537 61 c0 -5 -7 -17 -15
-28 -14 -18 -14 -17 -4 9 12 27 19 34 19 19z m-7546 -65 c31 -14 56 -28 56
-31 0 -3 -26 7 -57 22 -77 36 -175 37 -248 4 -27 -13 -45 -18 -38 -11 6 6 36
20 65 31 68 24 148 19 222 -15z m7496 -17 c-12 -16 -24 -30 -26 -30 -3 0 4 14
16 30 12 17 24 30 26 30 3 0 -4 -13 -16 -30z m-459 -17 c13 -16 12 -17 -3 -4
-10 7 -18 15 -18 17 0 8 8 3 21 -13z m129 -81 c-9 -3 -70 25 -70 33 0 2 18 -4
40 -13 21 -9 35 -18 30 -20z m236 23 c-11 -8 -25 -15 -30 -15 -6 1 0 7 14 15
32 19 40 18 16 0z m-61 -25 c-11 -5 -51 -8 -90 -7 l-70 1 75 6 c41 4 82 7 90
7 8 1 6 -2 -5 -7z m-7075 -36 c0 -2 -9 0 -20 6 -11 6 -20 13 -20 16 0 2 9 0
20 -6 11 -6 20 -13 20 -16z m-671 -11 c-6 -16 -15 -46 -20 -68 l-8 -40 3 40
c4 41 21 95 31 95 2 0 0 -12 -6 -27z m721 -19 c0 -2 -9 0 -20 6 -11 6 -20 13
-20 16 0 2 9 0 20 -6 11 -6 20 -13 20 -16z m-706 -239 c13 -25 20 -43 14 -39
-19 12 -58 109 -57 144 1 31 2 30 9 -13 5 -26 20 -67 34 -92z m1031 52 c16
-15 -48 20 -70 38 -11 9 -2 7 20 -6 22 -12 45 -26 50 -32z m250 -142 c11 -9 2
-7 -20 6 -22 12 -44 26 -50 32 -16 15 48 -20 70 -38z m-1204 -12 c13 -16 12
-17 -3 -4 -10 7 -18 15 -18 17 0 8 8 3 21 -13z m1269 -29 c0 -2 -9 0 -20 6
-11 6 -20 13 -20 16 0 2 9 0 20 -6 11 -6 20 -13 20 -16z m-1035 -107 c16 -15
-48 20 -70 38 -11 9 -2 7 20 -6 22 -12 45 -26 50 -32z m1215 7 c0 -2 -9 0 -20
6 -11 6 -20 13 -20 16 0 2 9 0 20 -6 11 -6 20 -13 20 -16z m50 -30 c0 -2 -9 0
-20 6 -11 6 -20 13 -20 16 0 2 9 0 20 -6 11 -6 20 -13 20 -16z m-1210 -10 c0
-2 -9 0 -20 6 -11 6 -20 13 -20 16 0 2 9 0 20 -6 11 -6 20 -13 20 -16z m1260
-20 c0 -2 -9 0 -20 6 -11 6 -20 13 -20 16 0 2 9 0 20 -6 11 -6 20 -13 20 -16z
m-1050 -100 c0 -2 -9 0 -20 6 -11 6 -20 13 -20 16 0 2 9 0 20 -6 11 -6 20 -13
20 -16z m1260 -20 c0 -2 -9 0 -20 6 -11 6 -20 13 -20 16 0 2 9 0 20 -6 11 -6
20 -13 20 -16z m-1210 -10 c0 -2 -9 0 -20 6 -11 6 -20 13 -20 16 0 2 9 0 20
-6 11 -6 20 -13 20 -16z m1260 -20 c0 -2 -9 0 -20 6 -11 6 -20 13 -20 16 0 2
9 0 20 -6 11 -6 20 -13 20 -16z m-1210 -10 c0 -2 -9 0 -20 6 -11 6 -20 13 -20
16 0 2 9 0 20 -6 11 -6 20 -13 20 -16z m1260 -20 c0 -2 -9 0 -20 6 -11 6 -20
13 -20 16 0 2 9 0 20 -6 11 -6 20 -13 20 -16z m-1015 -119 c11 -9 2 -7 -20 6
-22 12 -44 26 -50 32 -16 15 48 -20 70 -38z m1225 -1 c0 -2 -9 0 -20 6 -11 6
-20 13 -20 16 0 2 9 0 20 -6 11 -6 20 -13 20 -16z m50 -30 c0 -2 -9 0 -20 6
-11 6 -20 13 -20 16 0 2 9 0 20 -6 11 -6 20 -13 20 -16z m-1210 -10 c0 -2 -9
0 -20 6 -11 6 -20 13 -20 16 0 2 9 0 20 -6 11 -6 20 -13 20 -16z m180 -100 c0
-2 -9 0 -20 6 -11 6 -20 13 -20 16 0 2 9 0 20 -6 11 -6 20 -13 20 -16z m1260
-20 c0 -2 -9 0 -20 6 -11 6 -20 13 -20 16 0 2 9 0 20 -6 11 -6 20 -13 20 -16z
m-1210 -10 c0 -2 -9 0 -20 6 -11 6 -20 13 -20 16 0 2 9 0 20 -6 11 -6 20 -13
20 -16z m1275 -29 l20 -16 -20 10 c-11 5 -29 17 -40 26 l-20 16 20 -10 c11 -5
29 -17 40 -26z m-1065 -91 c0 -2 -9 0 -20 6 -11 6 -20 13 -20 16 0 2 9 0 20
-6 11 -6 20 -13 20 -16z m50 -30 c0 -2 -9 0 -20 6 -11 6 -20 13 -20 16 0 2 9
0 20 -6 11 -6 20 -13 20 -16z m1260 -20 c0 -2 -9 0 -20 6 -11 6 -20 13 -20 16
0 2 9 0 20 -6 11 -6 20 -13 20 -16z m-1210 -10 c0 -2 -9 0 -20 6 -11 6 -20 13
-20 16 0 2 9 0 20 -6 11 -6 20 -13 20 -16z m1260 -20 c0 -2 -9 0 -20 6 -11 6
-20 13 -20 16 0 2 9 0 20 -6 11 -6 20 -13 20 -16z m50 -30 c0 -2 -9 0 -20 6
-11 6 -20 13 -20 16 0 2 9 0 20 -6 11 -6 20 -13 20 -16z m-1065 -89 l20 -16
-20 10 c-11 5 -29 17 -40 26 l-20 16 20 -10 c11 -5 29 -17 40 -26z m1275 -31
c0 -2 -9 0 -20 6 -11 6 -20 13 -20 16 0 2 9 0 20 -6 11 -6 20 -13 20 -16z
m-1210 -10 c0 -2 -9 0 -20 6 -11 6 -20 13 -20 16 0 2 9 0 20 -6 11 -6 20 -13
20 -16z m1280 -30 c0 -2 -13 2 -30 11 -16 9 -30 18 -30 21 0 2 14 -2 30 -11
17 -9 30 -18 30 -21z m-1050 -100 c0 -2 -9 0 -20 6 -11 6 -20 13 -20 16 0 2 9
0 20 -6 11 -6 20 -13 20 -16z m1260 -20 c0 -2 -9 0 -20 6 -11 6 -20 13 -20 16
0 2 9 0 20 -6 11 -6 20 -13 20 -16z m-1195 -19 l20 -16 -20 10 c-11 5 -29 17
-40 26 l-20 16 20 -10 c11 -5 29 -17 40 -26z m1245 -11 c0 -2 -9 0 -20 6 -11
6 -20 13 -20 16 0 2 9 0 20 -6 11 -6 20 -13 20 -16z m50 -30 c0 -2 -9 0 -20 6
-11 6 -20 13 -20 16 0 2 9 0 20 -6 11 -6 20 -13 20 -16z m-1100 -70 c0 -2 -9
0 -20 6 -11 6 -20 13 -20 16 0 2 9 0 20 -6 11 -6 20 -13 20 -16z m50 -30 c0
-2 -9 0 -20 6 -11 6 -20 13 -20 16 0 2 9 0 20 -6 11 -6 20 -13 20 -16z m1260
-20 c0 -2 -9 0 -20 6 -11 6 -20 13 -20 16 0 2 9 0 20 -6 11 -6 20 -13 20 -16z
m-1210 -10 c0 -2 -9 0 -20 6 -11 6 -20 13 -20 16 0 2 9 0 20 -6 11 -6 20 -13
20 -16z m1260 -20 c0 -2 -9 0 -20 6 -11 6 -20 13 -20 16 0 2 9 0 20 -6 11 -6
20 -13 20 -16z m-967 -148 l22 -18 -25 14 c-14 8 -46 27 -72 42 -27 15 -48 30
-48 33 0 6 96 -49 123 -71z m1154 -88 c-3 -7 -5 -2 -5 12 0 14 2 19 5 13 2 -7
2 -19 0 -25z m-957 -24 c0 -2 -9 0 -20 6 -11 6 -20 13 -20 16 0 2 9 0 20 -6
11 -6 20 -13 20 -16z m961 -85 l-11 -34 5 34 c3 18 6 48 7 65 l1 31 4 -31 c2
-18 -1 -47 -6 -65z m-850 18 c13 -10 6 -8 -17 5 -22 13 -52 31 -65 41 -13 10
-6 8 17 -5 22 -13 52 -31 65 -41z m199 -113 c0 -2 -9 0 -20 6 -11 6 -20 13
-20 16 0 2 9 0 20 -6 11 -6 20 -13 20 -16z m85 -49 c11 -9 2 -7 -20 6 -22 12
-44 26 -50 32 -16 15 48 -20 70 -38z m505 2 c0 -2 -12 -14 -27 -28 l-28 -24
24 28 c23 25 31 32 31 24z m-267 -104 c-7 -2 -21 -2 -30 0 -10 3 -4 5 12 5 17
0 24 -2 18 -5z m90 0 c-7 -2 -21 -2 -30 0 -10 3 -4 5 12 5 17 0 24 -2 18 -5z"/>
<path d="M6332 5409 l3 -1174 130 3 c173 3 234 20 297 83 56 56 73 107 88 254
12 129 13 1562 0 1680 -14 131 -33 185 -81 234 -57 57 -129 77 -302 86 l-137
8 2 -1174z"/>
</g>
</svg>
