<?xml version="1.0" standalone="no"?>
<!DOCTYPE svg PUBLIC "-//W3C//DTD SVG 20010904//EN"
 "http://www.w3.org/TR/2001/REC-SVG-20010904/DTD/svg10.dtd">
<svg version="1.0" xmlns="http://www.w3.org/2000/svg"
 width="1082.000000pt" height="1082.000000pt" viewBox="0 0 1082.000000 1082.000000"
 preserveAspectRatio="xMidYMid meet">
<metadata>
Created by potrace 1.11, written by Peter Selinger 2001-2013
</metadata>
<g transform="translate(0.000000,1082.000000) scale(0.100000,-0.100000)"
fill="#000000" stroke="none">
<path d="M5312 10809 c-158 -20 -265 -64 -510 -205 -92 -54 -234 -136 -317
-184 -82 -48 -400 -231 -705 -407 -305 -176 -600 -346 -655 -378 -55 -32 -156
-90 -225 -130 -69 -40 -287 -166 -485 -280 -390 -225 -552 -318 -745 -430 -69
-39 -213 -123 -320 -185 -107 -62 -222 -129 -255 -147 -244 -138 -406 -351
-477 -627 -20 -79 -21 -106 -28 -1301 -4 -671 -9 -1728 -11 -2350 l-3 -1130
22 -88 c46 -184 129 -334 256 -461 45 -45 110 -100 146 -123 36 -23 598 -346
1250 -719 652 -372 1511 -864 1910 -1092 399 -228 759 -431 800 -452 232 -117
499 -135 743 -51 83 29 165 74 747 410 595 345 733 424 910 526 69 40 271 157
450 260 179 103 381 220 450 260 69 39 186 107 260 150 74 43 191 111 260 150
680 392 992 573 1028 597 176 120 314 315 378 533 26 89 27 97 34 495 5 223
10 1294 11 2380 l4 1975 -23 85 c-58 212 -185 401 -354 528 -29 22 -271 165
-538 318 -2679 1531 -3412 1950 -3464 1976 -91 46 -190 77 -296 93 -103 16
-151 17 -248 4z m-97 -913 c74 -19 132 -52 192 -108 105 -100 156 -244 134
-378 -19 -111 -49 -170 -125 -245 -74 -73 -75 -73 -1395 -831 -99 -56 -993
-573 -1286 -742 -450 -261 -566 -325 -614 -339 -38 -11 -81 -14 -145 -11 -76
3 -102 9 -157 35 -264 123 -341 453 -159 684 34 42 111 95 265 184 55 32 467
269 915 528 448 259 856 494 905 522 50 29 252 145 450 260 443 256 677 390
718 412 81 42 209 54 302 29z m4092 -2286 c120 -59 213 -175 242 -301 7 -29
11 -681 11 -1889 0 -2019 3 -1901 -57 -2013 -15 -27 -52 -72 -84 -101 -183
-170 -447 -162 -618 19 -29 30 -66 85 -84 122 l-32 68 -3 1880 c-2 2041 -5
1920 50 2029 27 53 103 132 158 164 87 51 136 63 247 59 91 -3 109 -7 170 -37z
m-4722 -531 c113 -13 254 -59 323 -105 176 -116 294 -354 337 -683 8 -63 14
-115 13 -117 -5 -4 -536 -84 -561 -84 -23 0 -24 4 -31 93 -19 248 -71 368
-174 397 -116 32 -220 -17 -272 -128 -45 -94 -35 -254 22 -372 40 -82 187
-231 475 -483 220 -193 321 -300 420 -449 133 -200 194 -424 179 -664 -20
-344 -219 -606 -541 -713 -296 -98 -675 -47 -902 122 -184 137 -301 410 -329
768 l-6 86 58 11 c378 65 516 85 523 73 5 -7 11 -56 14 -109 10 -186 54 -332
120 -400 94 -99 262 -109 341 -22 45 50 60 104 60 215 0 105 -15 177 -56 260
-62 126 -148 220 -418 454 -292 255 -368 328 -446 431 -116 154 -166 287 -184
486 -18 201 10 374 83 524 33 69 58 102 132 176 77 78 105 98 185 137 188 91
405 124 635 96z m2205 -53 c144 -22 239 -50 335 -97 177 -86 283 -210 347
-405 66 -197 70 -245 75 -944 7 -871 -7 -1088 -81 -1308 -33 -98 -77 -171
-143 -242 -132 -142 -313 -220 -585 -249 -55 -6 -311 -11 -588 -11 l-490 0 0
1633 c0 899 3 1637 8 1641 4 4 234 6 512 3 399 -4 527 -8 610 -21z m-4630
-3523 c25 -11 207 -114 405 -228 198 -115 401 -231 450 -260 50 -28 443 -255
875 -505 432 -249 853 -492 935 -540 562 -323 585 -338 646 -426 136 -199 76
-488 -129 -618 -120 -76 -288 -88 -412 -30 -36 17 -243 134 -460 259 -217 126
-496 287 -620 358 -124 71 -385 222 -580 335 -894 517 -1265 730 -1385 799
-156 90 -201 125 -248 196 -100 150 -102 339 -7 487 57 88 162 166 257 190 62
15 221 5 273 -17z"/>
<path d="M6330 5405 l0 -1168 143 6 c78 3 160 11 182 17 54 16 108 57 138 103
51 77 52 103 52 1057 0 841 -1 888 -19 954 -15 55 -28 79 -62 112 -59 59 -115
75 -291 81 l-143 6 0 -1168z"/>
</g>
</svg>
